<svg viewBox="0 0 1920 1080" xmlns="http://www.w3.org/2000/svg">
    <g fill="none" stroke="#0078D6" stroke-opacity=".402">
        <path clip-path="url(#b)" stroke-width="2" stroke-miterlimit="10"
              d="M243.4 147.8L150.5 201.4 57.6 147.8 57.6 -33"/>
        <g clip-path="url(#b)" stroke-width="2" stroke-linecap="round" stroke-linejoin="round">
            <path d="M479.3 660.7L479.3 657.7 476.6 656.2M471.3 653.1L466.1 650.1"/>
            <path stroke-dasharray="12.26, 12.26" d="M455.5 644L227.2 512.2"/>
            <path d="M221.9 509.1L216.7 506.1M214 504.6L211.4 503 208.7 504.6M203.4 507.7L198.2 510.7"/>
            <path stroke-dasharray="12.26, 12.26"
                  d="M187.5 516.8L-40.7 648.6M-32.7 980.8L195.6 1112.6M235.2 1108L463.5 976.2"/>
            <path d="M468.8 973.1L474 970.1M476.6 968.6L479.3 967.1 479.3 964M479.3 957.8L479.3 951.8"/>
            <path stroke-dasharray="12.26, 12.26" d="M479.3 939.6L479.3 676"/>
            <path d="M479.3 669.8L479.3 663.8"/>
        </g>
        <g clip-path="url(#b)">
            <path stroke-linecap="round" stroke-linejoin="round"
                  d="M675.3 826.3L675.3 825.4 674.5 825M673 824.2L669.6 822.2"/>
            <path d="M662.5 818L609 787.2" stroke-dasharray="8.2, 8.2"/>
            <path stroke-linecap="round" stroke-linejoin="round"
                  d="M605.5 785.1L602 783.1M601.3 782.7L600.5 782.3 599.8 782.7M598.3 783.6L594.8 785.6"/>
            <path stroke-dasharray="8.2, 8.2" d="M587.7 789.7L534.3 820.5"/>
            <path stroke-linecap="round" stroke-linejoin="round"
                  d="M530.7 822.6L527.3 824.6M526.5 825L525.8 825.4 525.8 826.3M525.8 828L525.8 832"/>
            <path stroke-dasharray="8.2, 8.2" d="M525.8 840.2L525.8 901.9"/>
            <path stroke-linecap="round" stroke-linejoin="round"
                  d="M525.8 906L525.8 910M525.8 910.9L525.8 911.8 526.5 912.2M528 913L531.5 915"/>
            <path stroke-dasharray="8.2, 8.2" d="M538.6 919.2L592 950"/>
            <path stroke-linecap="round" stroke-linejoin="round"
                  d="M595.6 952L599.1 954M599.8 954.5L600.5 954.9 601.3 954.5M602.8 953.6L606.2 951.6"/>
            <path stroke-dasharray="8.2, 8.2" d="M613.4 947.5L666.8 916.7"/>
            <path stroke-linecap="round" stroke-linejoin="round"
                  d="M670.3 914.6L673.8 912.6M674.5 912.2L675.3 911.7 675.3 910.9M675.3 909.2L675.3 905.2"/>
            <path stroke-dasharray="8.2, 8.2" d="M675.3 896.9L675.3 835.3"/>
            <path stroke-linecap="round" stroke-linejoin="round" d="M675.3 831.2L675.3 827.2"/>
        </g>
        <path clip-path="url(#b)" stroke-width="4" stroke-miterlimit="10" stroke-linecap="round" stroke-linejoin="round"
              d="M-99.3 971.1L-99.2 1124.4 33.5 1201 166.2 1124.4 166.2 971.1 33.5 894.5z"/>
        <path clip-path="url(#b)" stroke-miterlimit="10" stroke-linecap="round" stroke-linejoin="round"
              d="M-73 543.9L-73 649.5 18.4 702.2 109.8 649.4 109.8 543.9 18.4 491.1z"/>
        <path clip-path="url(#b)" stroke-width="2" stroke-miterlimit="10"
              d="M634.4 996.2L634.4 1097.3 722 1147.8 809.5 1097.3 809.5 996.2 722 945.6z"/>
        <path clip-path="url(#b)" stroke-width="2" stroke-miterlimit="10"
              d="M791.5 1058.6L791.5 1132 855 1168.7 918.5 1132 918.5 1058.6 855 1021.9zM150.5 439.5L150.5 512.8 214 549.5 277.6 512.8 277.6 439.5 214 402.8z"/>
        <path clip-path="url(#b)" stroke-miterlimit="10" stroke-linecap="round" stroke-linejoin="round"
              d="m 179.6,556 v 129.8 l 112.5,64.9 112.4,-64.9 V 556 L 292,491.1 Z" transform="translate(129.3 38)"/>
        <path clip-path="url(#b)" stroke-width="2" stroke-miterlimit="10"
              d="M117.7 732.1L117.7 885.4 250.4 962 383.1 962"/>
        <g clip-path="url(#b)" transform="translate(-1.5 .084)">
            <circle transform="rotate(-36.554 553.124 988.808)" cx="553.1" cy="988.8" r="8.7" fill="#80808020"/>
        </g>
        <path clip-path="url(#b)" stroke-width="2" stroke-miterlimit="10"
              d="M33.5 402.8L33.5 860 252.7 988.8 550.6 988.8"/>
        <g clip-path="url(#b)" transform="translate(-.012 -.98)">
            <circle transform="rotate(-36.554 33.482 402.757)" cx="33.5" cy="402.8" r="8.7" fill="#80808020"/>
        </g>
        <g clip-path="url(#b)" transform="translate(1.013 1.01)">
            <circle transform="rotate(-36.554 243.37 146.312)" cx="243.4" cy="146.3" r="8.7" fill="#80808020"/>
        </g>
        <g clip-path="url(#b)">
            <circle transform="rotate(-36.554 748.98 92.342)" cx="749" cy="92.4" r="8.7" fill="#80808020"/>
        </g>
        <g clip-path="url(#b)">
            <circle transform="rotate(-36.554 117.671 724.977)" cx="117.7" cy="725" r="6" fill="#80808020"/>
            <circle transform="rotate(-36.554 117.671 724.977)" cx="117.7" cy="725" stroke-width="4"
                    stroke-miterlimit="10" stroke-linecap="round" stroke-linejoin="round" r="11"/>
        </g>
        <g clip-path="url(#b)">
            <circle transform="rotate(-36.554 63.002 240.098)" cx="63" cy="240.1" r="7.8" fill="#80808020"/>
            <circle transform="rotate(-36.554 63.002 240.097)" cx="63" cy="240.1" stroke-width="4"
                    stroke-miterlimit="10" stroke-linecap="round" stroke-linejoin="round" r="14.3"/>
        </g>
        <g clip-path="url(#b)">
            <circle transform="rotate(-36.554 383.134 961.966)" cx="383.1" cy="962" r="6.9" fill="#80808020"/>
            <circle transform="rotate(-36.554 383.133 961.965)" cx="383.1" cy="962" stroke-width="4"
                    stroke-miterlimit="10" stroke-linecap="round" stroke-linejoin="round" r="12.6"/>
        </g>
        <path clip-path="url(#b)" stroke-width="2" stroke-linecap="round" stroke-linejoin="round" stroke-miterlimit="10"
              stroke-dasharray="12" d="M63 851.3L63 240.1"/>
        <g clip-path="url(#b)" stroke-miterlimit="10" stroke-linecap="round" stroke-linejoin="round">
            <path d="M130.8 240.1L130.8 365M170.2 240.1L170.2 365"/>
            <path stroke-width="2" stroke-dasharray="12" d="M205.5 240.1L205.5 365"/>
        </g>
    </g>
    <g fill="none" stroke="#0078D6" stroke-opacity=".402">
        <g clip-path="url(#b)" stroke-width="2" stroke-linecap="round" stroke-linejoin="round">
            <path stroke-dasharray="12.26, 12.26" d="M1935.2 166.2L1706.9 34.5"/>
            <path d="M1701.6 31.4L1696.4 28.4M1693.7 26.9L1691.1 25.3 1688.4 26.9M1683.1 29.9L1677.9 32.9"/>
            <path stroke-dasharray="12.26, 12.26" d="M1667.3 39.1L1439 170.9"/>
            <path d="M1433.7 173.9L1428.5 176.9M1425.8 178.5L1423.2 180 1423.2 183.1M1423.2 189.3L1423.2 195.3"/>
            <path stroke-dasharray="12.26, 12.26" d="M1423.2 207.5L1423.2 471.1"/>
            <path d="M1423.2 477.2L1423.2 483.2M1423.2 486.3L1423.2 489.4 1425.8 490.9M1431.2 494L1436.4 497"/>
            <path stroke-dasharray="12.26, 12.26" d="M1447 503.1L1675.3 634.9"/>
            <path d="M1680.6 638L1685.8 641M1688.5 642.5L1691.1 644 1693.7 642.5M1699.1 639.4L1704.3 636.4"/>
            <path stroke-dasharray="12.26, 12.26" d="M1714.9 630.3L1943.2 498.5"/>
        </g>
        <g clip-path="url(#b)" transform="translate(672.302 -627.7)" stroke-linecap="round" stroke-linejoin="round">
            <path d="M675.3 826.3v-.9l-.8-.4M673 824.2l-3.4-2"/>
            <path stroke-dasharray="8.2, 8.2" d="M 662.5,818 609,787.2"/>
            <path d="M605.5 785.1l-3.5-2M601.3 782.7l-.8-.4-.7.4M598.3 783.6l-3.5 2"/>
            <path d="m 587.7,789.7 -53.4,30.8" stroke-dasharray="8.2243,8.2243"/>
            <path d="M530.7 822.6l-3.4 2M526.5 825l-.7.4v.9M525.8 828v4"/>
            <path d="m 525.8,840.2 v 61.7" stroke-dasharray="8.2243,8.2243"/>
            <path d="M525.8 906v4M525.8 910.9v.9l.7.4M528 913l3.5 2"/>
            <path d="M 538.6,919.2 592,950" stroke-dasharray="8.2243,8.2243"/>
            <path d="M595.6 952l3.5 2M599.8 954.5l.7.4.8-.4M602.8 953.6l3.4-2"/>
            <path d="m 613.4,947.5 53.4,-30.8" stroke-dasharray="8.2243,8.2243"/>
            <path d="M670.3 914.6l3.5-2M674.5 912.2l.8-.5v-.8M675.3 909.2v-4"/>
            <path d="M 675.3,896.9 V 835.3" stroke-dasharray="8.2243,8.2243"/>
            <path d="m 675.3,831.2 v -4"/>
        </g>
        <path clip-path="url(#b)" stroke-width="4" stroke-miterlimit="10" stroke-linecap="round" stroke-linejoin="round"
              d="M1329.7 -67.8L1329.7 118.5 1491.1 211.7 1652.4 118.5 1652.4 -67.8 1491.1 -161z"/>
        <path clip-path="url(#b)" stroke-width="2" stroke-miterlimit="10"
              d="M1892.1 558.5L1892.1 659.6 1979.7 710.1 2067.2 659.6 2067.2 558.5 1979.7 507.9z"/>
        <path clip-path="url(#b)" stroke-miterlimit="10" stroke-linecap="round" stroke-linejoin="round"
              d="M1741 288.9L1741 377.4 1817.7 421.6 1894.3 377.4 1894.3 288.9 1817.6 244.6z"/>
        <path clip-path="url(#b)" d="m 179.6,556 v 129.8 l 112.5,64.9 112.4,-64.9 V 556 L 292,491.1 Z"
              transform="translate(1228.5 -9.4)" stroke-linecap="round" stroke-linejoin="round" stroke-miterlimit="10"/>
        <path clip-path="url(#b)" stroke-miterlimit="10" stroke-linecap="round" stroke-linejoin="round"
              d="M1807.6 704.3L1807.6 834.1 1920 899 2032.4 834.1 2032.4 704.3 1920 639.4z"/>
        <g clip-path="url(#b)">
            <circle transform="rotate(-36.554 1872.104 810.779)" cx="1872.1" cy="810.8" r="7" fill="#80808020"/>
            <circle transform="rotate(-36.554 1872.103 810.778)" cx="1872.1" cy="810.8" stroke-width="4"
                    stroke-miterlimit="10" stroke-linecap="round" stroke-linejoin="round" r="12.7"/>
        </g>
        <g clip-path="url(#b)">
            <circle transform="rotate(-36.554 1084.985 1011.954)" cx="1085" cy="1012" r="8.7" fill="#80808020"/>
        </g>
        <g clip-path="url(#b)">
            <circle transform="rotate(-36.554 1826.347 155.034)" cx="1826.4" cy="155.1" r="8.7" fill="#80808020"/>
        </g>
        <g clip-path="url(#b)">
            <circle transform="rotate(-36.554 1693.679 565.876)" cx="1693.7" cy="565.9" r="8.7" fill="#80808020"/>
        </g>
        <g clip-path="url(#b)" transform="rotate(90 1657.7 808.3)" stroke-miterlimit="10" stroke-linecap="round"
           stroke-linejoin="round">
            <path d="M1758.8 702.9H1634M1758.8 742.3H1634"/>
            <path stroke-width="2" stroke-dasharray="12" d="M 1758.8,777.5 H 1634"/>
        </g>
        <path clip-path="url(#b)" stroke-width="3" stroke-linecap="round" stroke-linejoin="round" stroke-miterlimit="10"
              stroke-dasharray="12" d="M1872.1 167L1872.1 803.6"/>
        <path clip-path="url(#b)" stroke-width="2" stroke-miterlimit="10" d="M1826.4 155.1L1826.4 494 1693.7 565.9"/>
    </g>
</svg>